<?xml version="1.0" encoding="utf-8"?>
<!-- Generator: Adobe Illustrator 20.1.0, SVG Export Plug-In . SVG Version: 6.00 Build 0)  -->
<svg version="1.1" id="Layer_1" xmlns="http://www.w3.org/2000/svg" xmlns:xlink="http://www.w3.org/1999/xlink" x="0px" y="0px"
	 viewBox="0 0 591 411" style="enable-background:new 0 0 591 411;" xml:space="preserve">
<style type="text/css">
	.st0{fill:#383535;}
	.st1{fill:#E8E7E7;}
	.st2{fill:#AAACAF;}
	.st3{fill:#4D4C4E;}
	.st4{fill:#FFFFFF;stroke:#A8AAAD;stroke-width:2;stroke-miterlimit:10;}
	.st5{fill:none;stroke:#A8AAAD;stroke-width:2;stroke-miterlimit:10;}
	.st6{fill:none;stroke:#A8AAAD;stroke-miterlimit:10;}
	.st7{fill:none;stroke:#A8AAAD;stroke-width:0.4;stroke-miterlimit:10;}
</style>
<g>
	<rect x="73.4" y="287.4" class="st0" width="435.5" height="47.5"/>
	<path class="st0" d="M496.9,332.4H85.4c-6.6,0-12-5.4-12-12v-262c0-6.6,5.4-12,12-12h411.5c6.6,0,12,5.4,12,12v262
		C508.9,327,503.5,332.4,496.9,332.4z"/>
	<rect x="18.4" y="334.9" class="st1" width="547.9" height="24"/>
	<path class="st2" d="M565.3,364.4H19.4c-0.6,0-1-0.4-1-1v-4.5h547.9v4.3C566.3,363.8,565.9,364.4,565.3,364.4z"/>
	<path class="st2" d="M326.2,344.6H258c-2.2,0-4-1.8-4-4v-5.7h76.2v5.7C330.2,342.8,328.4,344.6,326.2,344.6z"/>
	<path class="st2" d="M539,346.3h-14.5c-1.2,0-2.1-0.9-2.1-2.1l0,0c0-1.2,0.9-2.1,2.1-2.1H539c1.2,0,2.1,0.9,2.1,2.1l0,0
		C541.2,345.3,540.2,346.3,539,346.3z"/>
	<circle class="st3" cx="292.2" cy="55.5" r="1.8"/>
	<g>
		<path class="st4" d="M135.2,389.6H62.7c-9.5,0-17.2-7.8-17.2-17.2V190.1c0-9.5,7.8-17.2,17.2-17.2h72.5c9.5,0,17.2,7.8,17.2,17.2
			v182.3C152.4,381.9,144.7,389.6,135.2,389.6z"/>
		<line class="st5" x1="44.6" y1="202.2" x2="44.6" y2="208.5"/>
		<line class="st5" x1="44.6" y1="223.8" x2="44.6" y2="237"/>
		<line class="st5" x1="44.6" y1="241.4" x2="44.6" y2="254.6"/>
		<circle class="st6" cx="99.5" cy="375.1" r="8.6"/>
		<ellipse class="st7" cx="83.1" cy="188.6" rx="0.7" ry="0.7"/>
		<ellipse class="st7" cx="97.7" cy="181.9" rx="0.7" ry="0.7"/>
		<path class="st7" d="M105.7,189.7H89.8c-0.3,0-0.5-0.2-0.5-0.5v-1.1c0-0.3,0.2-0.5,0.5-0.5h15.9c0.3,0,0.5,0.2,0.5,0.5v1.1
			C106.2,189.5,106,189.7,105.7,189.7z"/>
		<line class="st5" x1="153.5" y1="223.8" x2="153.5" y2="243.8"/>
	</g>
</g>
</svg>
