<?xml version="1.0" encoding="utf-8"?>
<!-- Generator: Adobe Illustrator 20.1.0, SVG Export Plug-In . SVG Version: 6.00 Build 0)  -->
<svg version="1.1" id="Layer_1" xmlns="http://www.w3.org/2000/svg" xmlns:xlink="http://www.w3.org/1999/xlink" x="0px" y="0px"
	 viewBox="0 0 729 552" style="enable-background:new 0 0 729 552;" xml:space="preserve">
<style type="text/css">
	.st0{fill:none;stroke:#000000;stroke-miterlimit:10;}
	.st1{fill:none;stroke:#231F20;stroke-miterlimit:10;}
	.st2{font-family:'Lato-Regular';}
	.st3{font-size:21.7021px;}
	.st4{font-size:16.2766px;}
</style>
<g>
	<rect x="17" y="21" class="st0" width="208.9" height="54.3"/>
	<rect x="486.3" y="21" class="st0" width="208.9" height="54.3"/>
	<rect x="251.7" y="21" class="st0" width="208.9" height="54.3"/>
	<rect x="17" y="87.5" class="st1" width="208.9" height="170.9"/>
	<rect x="251.7" y="87.5" class="st1" width="208.9" height="170.9"/>
	<rect x="486.3" y="87.5" class="st1" width="208.9" height="170.9"/>
	<rect x="17" y="293.6" class="st0" width="208.9" height="54.3"/>
	<rect x="486.3" y="293.6" class="st0" width="208.9" height="54.3"/>
	<rect x="251.7" y="293.6" class="st0" width="208.9" height="54.3"/>
	<rect x="17" y="360.1" class="st1" width="208.9" height="170.9"/>
	<rect x="251.7" y="360.1" class="st1" width="208.9" height="170.9"/>
	<rect x="486.3" y="360.1" class="st1" width="208.9" height="170.9"/>
	<text transform="matrix(1 0 0 1 30.5635 57.623)" class="st2 st3">Home Page</text>
	<text transform="matrix(1 0 0 1 262.5049 57.6226)" class="st2 st3">Header</text>
	<text transform="matrix(1 0 0 1 499.873 57.6221)" class="st2 st3">Footer</text>
	<text transform="matrix(1 0 0 1 30.5635 330.2549)" class="st2 st3">Main Post Page</text>
	<text transform="matrix(1 0 0 1 262.5054 330.2549)" class="st2 st3">Single Post Page</text>
	<text transform="matrix(1 0 0 1 499.873 330.2549)" class="st2 st3">About Page</text>
	<text transform="matrix(1 0 0 1 30.5645 137.6484)"><tspan x="0" y="0" class="st2 st4">Banner image</tspan><tspan x="0" y="19.5" class="st2 st4">Intro paragraph</tspan><tspan x="0" y="39.1" class="st2 st4">Section descriptions</tspan><tspan x="0" y="58.6" class="st2 st4">Featured recipes</tspan><tspan x="0" y="78.1" class="st2 st4">Featured posts</tspan></text>
	<text transform="matrix(1 0 0 1 262.5049 137.6484)"><tspan x="0" y="0" class="st2 st4">Logo</tspan><tspan x="0" y="19.5" class="st2 st4">Social media links</tspan><tspan x="0" y="39.1" class="st2 st4">Search bar</tspan><tspan x="0" y="58.6" class="st2 st4">Navigation bar</tspan></text>
	<text transform="matrix(1 0 0 1 499.8721 137.6494)"><tspan x="0" y="0" class="st2 st4">About Jerah</tspan><tspan x="0" y="19.5" class="st2 st4">Navigation links</tspan><tspan x="0" y="39.1" class="st2 st4">E-newsletter signup</tspan><tspan x="0" y="58.6" class="st2 st4">Social media links</tspan></text>
	<text transform="matrix(1 0 0 1 30.564 430.6279)"><tspan x="0" y="0" class="st2 st4">Featured post image</tspan><tspan x="0" y="19.5" class="st2 st4">Post categories</tspan></text>
	<text transform="matrix(1 0 0 1 262.5054 383.1543)"><tspan x="0" y="0" class="st2 st4">Featured post image</tspan><tspan x="0" y="19.5" class="st2 st4">Post name</tspan><tspan x="0" y="39.1" class="st2 st4">Social media sharing</tspan><tspan x="0" y="58.6" class="st2 st4">Post article</tspan><tspan x="0" y="78.1" class="st2 st4">Newsletter signup</tspan><tspan x="0" y="97.7" class="st2 st4">Related posts</tspan><tspan x="0" y="117.2" class="st2 st4">Featured products</tspan><tspan x="0" y="136.7" class="st2 st4">comments</tspan></text>
	<text transform="matrix(1 0 0 1 499.8721 430.627)"><tspan x="0" y="0" class="st2 st4">Image of Jerah</tspan><tspan x="0" y="19.5" class="st2 st4">Q&amp;A with Jerah</tspan></text>
</g>
</svg>
