<?xml version="1.0" encoding="utf-8"?>
<!-- Generator: Adobe Illustrator 20.1.0, SVG Export Plug-In . SVG Version: 6.00 Build 0)  -->
<svg version="1.1" id="Layer_1" xmlns="http://www.w3.org/2000/svg" xmlns:xlink="http://www.w3.org/1999/xlink" x="0px" y="0px"
	 viewBox="0 0 1045.4 586.5" style="enable-background:new 0 0 1045.4 586.5;" xml:space="preserve">
<style type="text/css">
	.st0{fill:#231F20;stroke:#231F20;stroke-miterlimit:10;}
	.st1{fill:#98AE95;}
	.st2{fill:#637D67;}
	.st3{fill:none;stroke:#231F20;stroke-miterlimit:10;}
	.st4{font-family:'Lato-Regular';}
	.st5{font-size:20.0433px;}
	.st6{font-size:17.5379px;}
</style>
<g>
	<line class="st0" x1="386.9" y1="144.8" x2="386.9" y2="389"/>
	<rect x="47.4" y="93.4" class="st1" width="125.3" height="51.4"/>
	<rect x="185.2" y="93.4" class="st1" width="125.3" height="51.4"/>
	<rect x="324.2" y="93.4" class="st1" width="125.3" height="51.4"/>
	<rect x="463.3" y="93.4" class="st1" width="125.3" height="51.4"/>
	<rect x="601.1" y="93.4" class="st1" width="125.3" height="51.4"/>
	<rect x="738.9" y="93.4" class="st1" width="125.3" height="51.4"/>
	<rect x="876.7" y="93.4" class="st1" width="125.3" height="51.4"/>
	<rect x="601.1" y="177.3" class="st2" width="125.3" height="51.4"/>
	<rect x="324.2" y="177.3" class="st2" width="125.3" height="51.4"/>
	<rect x="324.2" y="245" class="st2" width="125.3" height="51.4"/>
	<rect x="324.2" y="312.6" class="st2" width="125.3" height="51.4"/>
	<line class="st3" x1="663.7" y1="144.8" x2="663.7" y2="177.3"/>
	<rect x="324.2" y="389" class="st2" width="125.3" height="51.4"/>
	<text transform="matrix(1 0 0 1 82.4639 127.2208)" class="st4 st5">About</text>
	<text transform="matrix(1 0 0 1 213.9976 127.2213)" class="st4 st5">Fertility</text>
	<text transform="matrix(1 0 0 1 339.2686 127.2213)" class="st4 st5">Pregnancy</text>
	<text transform="matrix(1 0 0 1 472.0557 127.2213)" class="st4 st5">Parenthood</text>
	<text transform="matrix(1 0 0 1 624.8858 127.2218)" class="st4 st5">At Home</text>
	<text transform="matrix(1 0 0 1 618.6221 209.9)" class="st4 st5">Resources</text>
	<text transform="matrix(1 0 0 1 766.4405 127.2213)" class="st4 st5">Recipes</text>
	<text transform="matrix(1 0 0 1 905.4913 127.2218)" class="st4 st5">Contact</text>
	<text transform="matrix(1 0 0 1 335.5108 209.9)" class="st4 st6">1st Trimester</text>
	<text transform="matrix(1 0 0 1 334.2578 278.7985)" class="st4 st6">2nd Trimester</text>
	<text transform="matrix(1 0 0 1 334.2578 346.4449)" class="st4 st6">3rd Trimester</text>
	<text transform="matrix(1 0 0 1 348.0371 421.6071)" class="st4 st6">Peri-Natal</text>
</g>
</svg>
