<?xml version="1.0" encoding="utf-8"?>
<!-- Generator: Adobe Illustrator 20.1.0, SVG Export Plug-In . SVG Version: 6.00 Build 0)  -->
<svg version="1.1" id="Layer_1" xmlns="http://www.w3.org/2000/svg" xmlns:xlink="http://www.w3.org/1999/xlink" x="0px" y="0px"
	 viewBox="0 0 564 376" style="enable-background:new 0 0 564 376;" xml:space="preserve">
<style type="text/css">
	.st0{fill:#373435;}
	.st1{fill:#E7E7E7;}
	.st2{fill:#A9ABAE;}
	.st3{fill:#4C4B4D;}
	.st4{fill:#FFFFFF;stroke:#A7A9AC;stroke-width:2;stroke-miterlimit:10;}
	.st5{fill:none;stroke:#A7A9AC;stroke-width:2;stroke-miterlimit:10;}
	.st6{fill:none;stroke:#A7A9AC;stroke-miterlimit:10;}
	.st7{fill:none;stroke:#A7A9AC;stroke-width:0.4;stroke-miterlimit:10;}
</style>
<rect x="63" y="251" class="st0" width="435.5" height="47.5"/>
<path class="st0" d="M486.5,296H75c-6.6,0-12-5.4-12-12V22c0-6.6,5.4-12,12-12h411.5c6.6,0,12,5.4,12,12v262
	C498.5,290.6,493.1,296,486.5,296z"/>
<rect x="8" y="298.5" class="st1" width="547.9" height="24"/>
<path class="st2" d="M554.9,328H9c-0.6,0-1-0.4-1-1v-4.5h547.9v4.3C555.9,327.4,555.5,328,554.9,328z"/>
<path class="st2" d="M315.8,308.2h-68.2c-2.2,0-4-1.8-4-4v-5.7h76.2v5.7C319.8,306.4,318,308.2,315.8,308.2z"/>
<path class="st2" d="M528.6,309.9h-14.5c-1.2,0-2.1-0.9-2.1-2.1l0,0c0-1.2,0.9-2.1,2.1-2.1h14.5c1.2,0,2.1,0.9,2.1,2.1l0,0
	C530.8,308.9,529.8,309.9,528.6,309.9z"/>
<circle class="st3" cx="281.8" cy="19.1" r="1.8"/>
<image style="overflow:visible;" width="2880" height="1800" xlink:href="../../Desktop/Screen Shot 2016-11-08 at 12.26.40 PM.png"  transform="matrix(0.1391 0 0 0.1391 81.24 28.775)">
</image>
<path class="st4" d="M124.8,360.7H43.5c-9.9,0-18-8.1-18-18V148.5c0-9.9,8.1-18,18-18h81.3c9.9,0,18,8.1,18,18v194.2
	C142.8,352.6,134.7,360.7,124.8,360.7z"/>
<line class="st5" x1="24.4" y1="161.7" x2="24.4" y2="168.3"/>
<line class="st5" x1="24.4" y1="184.7" x2="24.4" y2="198.7"/>
<line class="st5" x1="143.8" y1="184.3" x2="143.8" y2="198.3"/>
<line class="st5" x1="24.4" y1="203.3" x2="24.4" y2="217.3"/>
<circle class="st6" cx="84.2" cy="345.3" r="9.1"/>
<ellipse class="st7" cx="68.7" cy="147.3" rx="0.8" ry="0.8"/>
<ellipse class="st7" cx="84.2" cy="140.1" rx="0.8" ry="0.8"/>
<path class="st7" d="M92.1,148.4H76.4c-0.6,0-1.1-0.5-1.1-1.1l0,0c0-0.6,0.5-1.1,1.1-1.1h15.8c0.6,0,1.1,0.5,1.1,1.1l0,0
	C93.3,147.9,92.7,148.4,92.1,148.4z"/>
<image style="overflow:visible;" width="744" height="1318" xlink:href="../../Desktop/Screen Shot 2016-11-08 at 12.34.46 PM.png"  transform="matrix(0.1335 0 0 0.1293 34 160.6092)">
</image>
</svg>
