<?xml version="1.0" encoding="utf-8"?>
<!-- Generator: Adobe Illustrator 20.1.0, SVG Export Plug-In . SVG Version: 6.00 Build 0)  -->
<svg version="1.1" id="Layer_1" xmlns="http://www.w3.org/2000/svg" xmlns:xlink="http://www.w3.org/1999/xlink" x="0px" y="0px"
	 viewBox="0 0 526 1027.3" style="enable-background:new 0 0 526 1027.3;" xml:space="preserve">
<style type="text/css">
	.st0{fill:#FFFFFF;}
	.st1{fill:none;stroke:#000000;stroke-miterlimit:10;}
	.st2{clip-path:url(#SVGID_2_);fill:none;stroke:#000000;stroke-miterlimit:10;}
	.st3{clip-path:url(#SVGID_4_);}
	.st4{clip-path:url(#SVGID_6_);}
	.st5{clip-path:url(#SVGID_8_);fill:#FFFFFF;}
	.st6{clip-path:url(#SVGID_8_);}
	.st7{clip-path:url(#SVGID_10_);}
	.st8{clip-path:url(#SVGID_12_);}
	.st9{clip-path:url(#SVGID_12_);fill:#FFFFFF;}
	.st10{clip-path:url(#SVGID_14_);}
	.st11{clip-path:url(#SVGID_16_);fill:#FFFFFF;}
	.st12{clip-path:url(#SVGID_16_);}
	.st13{clip-path:url(#SVGID_18_);}
	.st14{clip-path:url(#SVGID_20_);fill:#FFFFFF;}
	.st15{clip-path:url(#SVGID_20_);}
	.st16{clip-path:url(#SVGID_22_);}
	.st17{clip-path:url(#SVGID_24_);fill:#FFFFFF;}
	.st18{clip-path:url(#SVGID_24_);}
	.st19{clip-path:url(#SVGID_26_);}
	.st20{clip-path:url(#SVGID_28_);fill:#FFFFFF;}
	.st21{clip-path:url(#SVGID_28_);}
	.st22{clip-path:url(#SVGID_30_);}
	.st23{clip-path:url(#SVGID_32_);}
	.st24{clip-path:url(#SVGID_32_);fill:#FFFFFF;}
	.st25{clip-path:url(#SVGID_34_);}
	.st26{clip-path:url(#SVGID_36_);fill:#FFFFFF;}
	.st27{clip-path:url(#SVGID_36_);}
	.st28{clip-path:url(#SVGID_38_);}
	.st29{clip-path:url(#SVGID_40_);fill:#FFFFFF;}
	.st30{clip-path:url(#SVGID_40_);}
	.st31{clip-path:url(#SVGID_4_);fill:none;stroke:#000000;stroke-miterlimit:10;}
	.st32{fill:#FFFFFF;stroke:#000000;stroke-miterlimit:10;}
	.st33{fill:none;}
	.st34{font-family:'MyriadPro-Regular';}
	.st35{font-size:11.1436px;}
	.st36{font-size:9.1175px;}
	.st37{font-size:16.2089px;}
</style>
<rect x="-1062.8" y="86.5" class="st0" width="436.5" height="114"/>
<rect x="-1062.8" y="86.5" class="st1" width="436.5" height="114"/>
<line class="st1" x1="-1062.8" y1="200.4" x2="-626.3" y2="86.5"/>
<line class="st1" x1="-626.3" y1="200.4" x2="-1062.8" y2="86.5"/>
<rect x="-908.2" y="128" class="st0" width="127.3" height="30.9"/>
<text transform="matrix(1 0 0 1 -869.0405 151.0156)"><tspan x="0" y="0" class="st34" style="font-size:22px;">L</tspan><tspan x="10.1" y="0" class="st34" style="font-size:22px;">ogo</tspan></text>
<line class="st1" x1="-1271" y1="245.4" x2="-418.1" y2="245.4"/>
<line class="st1" x1="-1271" y1="300.9" x2="-418.1" y2="300.9"/>
<text transform="matrix(1 0 0 1 -1259.1387 279.0639)"><tspan x="0" y="0" class="st34" style="font-size:22px;">N</tspan><tspan x="14.5" y="0" class="st34" style="font-size:22px;">a</tspan><tspan x="24.9" y="0" class="st34" style="font-size:22px;">v </tspan><tspan x="40.1" y="0" class="st34" style="font-size:22px;">I</tspan><tspan x="45.7" y="0" class="st34" style="font-size:22px;">t</tspan><tspan x="52.9" y="0" class="st34" style="font-size:22px;">e</tspan><tspan x="63.9" y="0" class="st34" style="font-size:22px; letter-spacing:34;">m</tspan><tspan x="116.6" y="0" class="st34" style="font-size:22px;">N</tspan><tspan x="131" y="0" class="st34" style="font-size:22px;">a</tspan><tspan x="141.5" y="0" class="st34" style="font-size:22px;">v </tspan><tspan x="156.7" y="0" class="st34" style="font-size:22px;">I</tspan><tspan x="162.3" y="0" class="st34" style="font-size:22px;">t</tspan><tspan x="169.5" y="0" class="st34" style="font-size:22px;">e</tspan><tspan x="180.5" y="0" class="st34" style="font-size:22px; letter-spacing:34;">m</tspan><tspan x="233.1" y="0" class="st34" style="font-size:22px;">N</tspan><tspan x="247.6" y="0" class="st34" style="font-size:22px;">a</tspan><tspan x="258" y="0" class="st34" style="font-size:22px;">v </tspan><tspan x="273.3" y="0" class="st34" style="font-size:22px;">I</tspan><tspan x="278.9" y="0" class="st34" style="font-size:22px;">t</tspan><tspan x="286" y="0" class="st34" style="font-size:22px;">e</tspan><tspan x="297.1" y="0" class="st34" style="font-size:22px; letter-spacing:34;">m</tspan><tspan x="349.7" y="0" class="st34" style="font-size:22px;">N</tspan><tspan x="364.2" y="0" class="st34" style="font-size:22px;">a</tspan><tspan x="374.6" y="0" class="st34" style="font-size:22px;">v </tspan><tspan x="389.9" y="0" class="st34" style="font-size:22px;">I</tspan><tspan x="395.5" y="0" class="st34" style="font-size:22px;">t</tspan><tspan x="402.6" y="0" class="st34" style="font-size:22px;">e</tspan><tspan x="413.6" y="0" class="st34" style="font-size:22px; letter-spacing:34;">m</tspan><tspan x="466.3" y="0" class="st34" style="font-size:22px;">N</tspan><tspan x="480.8" y="0" class="st34" style="font-size:22px;">a</tspan><tspan x="491.2" y="0" class="st34" style="font-size:22px;">v </tspan><tspan x="506.5" y="0" class="st34" style="font-size:22px;">I</tspan><tspan x="512" y="0" class="st34" style="font-size:22px;">t</tspan><tspan x="519.2" y="0" class="st34" style="font-size:22px;">e</tspan><tspan x="530.2" y="0" class="st34" style="font-size:22px; letter-spacing:34;">m</tspan><tspan x="582.9" y="0" class="st34" style="font-size:22px;">N</tspan><tspan x="597.3" y="0" class="st34" style="font-size:22px;">a</tspan><tspan x="607.8" y="0" class="st34" style="font-size:22px;">v </tspan><tspan x="623" y="0" class="st34" style="font-size:22px;">I</tspan><tspan x="628.6" y="0" class="st34" style="font-size:22px;">t</tspan><tspan x="635.8" y="0" class="st34" style="font-size:22px;">e</tspan><tspan x="646.8" y="0" class="st34" style="font-size:22px; letter-spacing:34;">m</tspan><tspan x="699.4" y="0" class="st34" style="font-size:22px;">N</tspan><tspan x="713.9" y="0" class="st34" style="font-size:22px;">a</tspan><tspan x="724.4" y="0" class="st34" style="font-size:22px;">v </tspan><tspan x="739.6" y="0" class="st34" style="font-size:22px;">I</tspan><tspan x="745.2" y="0" class="st34" style="font-size:22px;">t</tspan><tspan x="752.4" y="0" class="st34" style="font-size:22px;">em</tspan></text>
<rect x="-1271" y="345.9" class="st1" width="852.9" height="316.5"/>
<line class="st1" x1="-1271" y1="345.9" x2="-418.1" y2="662.4"/>
<line class="st1" x1="-1271" y1="662.4" x2="-418.1" y2="345.9"/>
<rect x="-908.2" y="487.9" class="st0" width="136.4" height="30.9"/>
<text transform="matrix(1 0 0 1 -904.5884 510.0693)"><tspan x="0" y="0" class="st34" style="font-size:22px;">Header </tspan><tspan x="71.3" y="0" class="st34" style="font-size:22px;">I</tspan><tspan x="76.7" y="0" class="st34" style="font-size:22px;">mage</tspan></text>
<line class="st1" x1="-990.8" y1="721.6" x2="-696.8" y2="721.6"/>
<line class="st1" x1="-990.8" y1="748.7" x2="-696.8" y2="748.7"/>
<line class="st1" x1="-990.8" y1="775.8" x2="-696.8" y2="775.8"/>
<line class="st1" x1="-992.2" y1="802.8" x2="-698.3" y2="802.8"/>
<line class="st1" x1="-990.8" y1="831.2" x2="-696.8" y2="831.2"/>
<line class="st1" x1="-1043.4" y1="890.3" x2="-873.4" y2="1060.3"/>
<line class="st1" x1="-873.4" y1="890.3" x2="-1043.4" y2="1060.3"/>
<line class="st1" x1="-815.7" y1="890.3" x2="-645.7" y2="1060.3"/>
<line class="st1" x1="-645.7" y1="890.3" x2="-815.7" y2="1060.3"/>
<line class="st1" x1="-588.1" y1="890.3" x2="-418.1" y2="1060.3"/>
<line class="st1" x1="-418.1" y1="890.3" x2="-588.1" y2="1060.3"/>
<line class="st1" x1="-1043.4" y1="1085.3" x2="-873.4" y2="1085.3"/>
<line class="st1" x1="-1043.4" y1="1110.3" x2="-873.4" y2="1110.3"/>
<line class="st1" x1="-815.7" y1="1085.3" x2="-645.7" y2="1085.3"/>
<line class="st1" x1="-815.7" y1="1110.3" x2="-645.7" y2="1110.3"/>
<line class="st1" x1="-588.1" y1="1085.3" x2="-418.1" y2="1085.3"/>
<line class="st1" x1="-588.1" y1="1110.3" x2="-418.1" y2="1110.3"/>
<rect x="-1043.4" y="1027.3" class="st0" width="170" height="33"/>
<rect x="-1043.4" y="1027.3" class="st1" width="170" height="33"/>
<rect x="-815.7" y="1027.3" class="st0" width="170" height="33"/>
<rect x="-815.7" y="1027.3" class="st1" width="170" height="33"/>
<rect x="-588.1" y="1027.3" class="st0" width="170" height="33"/>
<rect x="-588.1" y="1027.3" class="st1" width="170" height="33"/>
<rect x="-1043.4" y="890.3" class="st1" width="170" height="170"/>
<rect x="-815.7" y="890.3" class="st1" width="170" height="170"/>
<rect x="-588.1" y="890.3" class="st1" width="170" height="170"/>
<text transform="matrix(1 0 0 1 -1014.4766 1050.5679)"><tspan x="0" y="0" class="st34" style="font-size:22px;">S</tspan><tspan x="11" y="0" class="st34" style="font-size:22px;">e</tspan><tspan x="22" y="0" class="st34" style="font-size:22px;">c</tspan><tspan x="32.1" y="0" class="st34" style="font-size:22px;">tion</tspan><tspan x="68.8" y="0" class="st34" style="font-size:22px;"> </tspan><tspan x="72.6" y="0" class="st34" style="font-size:22px;">T</tspan><tspan x="83.3" y="0" class="st34" style="font-size:22px;">itle</tspan></text>
<line class="st1" x1="-1271" y1="890.3" x2="-1101" y2="1060.3"/>
<line class="st1" x1="-1101" y1="890.3" x2="-1271" y2="1060.3"/>
<line class="st1" x1="-1271" y1="1085.3" x2="-1101" y2="1085.3"/>
<line class="st1" x1="-1271" y1="1110.3" x2="-1101" y2="1110.3"/>
<rect x="-1271" y="1027.3" class="st0" width="170" height="33"/>
<rect x="-1271" y="1027.3" class="st1" width="170" height="33"/>
<rect x="-1271" y="890.3" class="st1" width="170" height="170"/>
<text transform="matrix(1 0 0 1 -1242.106 1050.5679)"><tspan x="0" y="0" class="st34" style="font-size:22px;">S</tspan><tspan x="11" y="0" class="st34" style="font-size:22px;">e</tspan><tspan x="22" y="0" class="st34" style="font-size:22px;">c</tspan><tspan x="32.1" y="0" class="st34" style="font-size:22px;">tion</tspan><tspan x="68.8" y="0" class="st34" style="font-size:22px;"> </tspan><tspan x="72.6" y="0" class="st34" style="font-size:22px;">T</tspan><tspan x="83.3" y="0" class="st34" style="font-size:22px;">itle</tspan></text>
<text transform="matrix(1 0 0 1 -786.8374 1050.5679)"><tspan x="0" y="0" class="st34" style="font-size:22px;">S</tspan><tspan x="11" y="0" class="st34" style="font-size:22px;">e</tspan><tspan x="22" y="0" class="st34" style="font-size:22px;">c</tspan><tspan x="32.1" y="0" class="st34" style="font-size:22px;">tion</tspan><tspan x="68.8" y="0" class="st34" style="font-size:22px;"> </tspan><tspan x="72.6" y="0" class="st34" style="font-size:22px;">T</tspan><tspan x="83.3" y="0" class="st34" style="font-size:22px;">itle</tspan></text>
<text transform="matrix(1 0 0 1 -559.2036 1050.5679)"><tspan x="0" y="0" class="st34" style="font-size:22px;">S</tspan><tspan x="11" y="0" class="st34" style="font-size:22px;">e</tspan><tspan x="22" y="0" class="st34" style="font-size:22px;">c</tspan><tspan x="32.1" y="0" class="st34" style="font-size:22px;">tion</tspan><tspan x="68.8" y="0" class="st34" style="font-size:22px;"> </tspan><tspan x="72.6" y="0" class="st34" style="font-size:22px;">T</tspan><tspan x="83.3" y="0" class="st34" style="font-size:22px;">itle</tspan></text>
<rect x="-1271" y="1189.3" class="st1" width="397.6" height="228"/>
<rect x="-1246.5" y="1250.9" class="st1" width="348.7" height="145.5"/>
<text transform="matrix(1 0 0 1 -1246.5181 1229.8979)"><tspan x="0" y="0" class="st34" style="font-size:22px;">F</tspan><tspan x="10.1" y="0" class="st34" style="font-size:22px;">e</tspan><tspan x="21.1" y="0" class="st34" style="font-size:22px;">a</tspan><tspan x="31.6" y="0" class="st34" style="font-size:22px;">tu</tspan><tspan x="51" y="0" class="st34" style="font-size:22px;">r</tspan><tspan x="58" y="0" class="st34" style="font-size:22px;">ed </tspan><tspan x="86.1" y="0" class="st34" style="font-size:22px;">R</tspan><tspan x="98" y="0" class="st34" style="font-size:22px;">ecipe</tspan></text>
<text transform="matrix(1 0 0 1 -1270.9819 1538.8882)"><tspan x="0" y="0" class="st34" style="font-size:22px;">M</tspan><tspan x="17.8" y="0" class="st34" style="font-size:22px;">eet Je</tspan><tspan x="71" y="0" class="st34" style="font-size:22px;">r</tspan><tspan x="78.1" y="0" class="st34" style="font-size:22px;">ah</tspan></text>
<text transform="matrix(1 0 0 1 -658.5464 1538.8882)"><tspan x="0" y="0" class="st34" style="font-size:22px;">Ne</tspan><tspan x="25.5" y="0" class="st34" style="font-size:22px;">w</tspan><tspan x="41.6" y="0" class="st34" style="font-size:22px;">slet</tspan><tspan x="73.8" y="0" class="st34" style="font-size:22px;">t</tspan><tspan x="80.9" y="0" class="st34" style="font-size:22px;">er Si</tspan><tspan x="119.8" y="0" class="st34" style="font-size:22px;">g</tspan><tspan x="132" y="0" class="st34" style="font-size:22px;">n-Up</tspan></text>
<text transform="matrix(1 0 0 1 -658.5464 1623.1919)"><tspan x="0" y="0" class="st34" style="font-size:22px;">S</tspan><tspan x="10.9" y="0" class="st34" style="font-size:22px;">a</tspan><tspan x="21.3" y="0" class="st34" style="font-size:22px;">y Hello</tspan></text>
<line class="st1" x1="-897.8" y1="1250.9" x2="-1246.5" y2="1396.4"/>
<line class="st1" x1="-1246.5" y1="1250.9" x2="-897.8" y2="1396.4"/>
<rect x="-815.7" y="1189.3" class="st1" width="397.6" height="228"/>
<rect x="-791.3" y="1250.9" class="st1" width="348.7" height="145.5"/>
<text transform="matrix(1 0 0 1 -791.2593 1229.8979)"><tspan x="0" y="0" class="st34" style="font-size:22px;">F</tspan><tspan x="10" y="0" class="st34" style="font-size:22px;">e</tspan><tspan x="21.1" y="0" class="st34" style="font-size:22px;">a</tspan><tspan x="31.6" y="0" class="st34" style="font-size:22px;">tu</tspan><tspan x="51" y="0" class="st34" style="font-size:22px;">r</tspan><tspan x="58" y="0" class="st34" style="font-size:22px;">ed </tspan><tspan x="86.1" y="0" class="st34" style="font-size:22px;">P</tspan><tspan x="97.2" y="0" class="st34" style="font-size:22px;">ost</tspan></text>
<line class="st1" x1="-442.6" y1="1250.9" x2="-791.3" y2="1396.4"/>
<line class="st1" x1="-791.3" y1="1250.9" x2="-442.6" y2="1396.4"/>
<g>
	<defs>
		<rect id="SVGID_1_" x="-1324.5" y="-2.7" width="960" height="1717"/>
	</defs>
	<clipPath id="SVGID_2_">
		<use xlink:href="#SVGID_1_"  style="overflow:visible;"/>
	</clipPath>
	<line class="st2" x1="-1323.8" y1="1496.3" x2="-363.8" y2="1496.3"/>
</g>
<rect x="-1271" y="1557.3" class="st1" width="102.2" height="102.2"/>
<line class="st1" x1="-1271" y1="1557.3" x2="-1168.8" y2="1659.6"/>
<line class="st1" x1="-1168.8" y1="1557.3" x2="-1271" y2="1659.6"/>
<line class="st1" x1="-1143.5" y1="1557.3" x2="-992.4" y2="1557.3"/>
<line class="st1" x1="-1143.5" y1="1576.9" x2="-992.4" y2="1576.9"/>
<line class="st1" x1="-1143.5" y1="1596.5" x2="-992.4" y2="1596.5"/>
<line class="st1" x1="-1144.2" y1="1616.1" x2="-993.2" y2="1616.1"/>
<line class="st1" x1="-1143.1" y1="1635.8" x2="-992.1" y2="1635.8"/>
<line class="st1" x1="-1143.1" y1="1655.3" x2="-992.1" y2="1655.3"/>
<text transform="matrix(1 0 0 1 -938.0566 1561.6284)"><tspan x="0" y="0" class="st34" style="font-size:22px;">N</tspan><tspan x="14.5" y="0" class="st34" style="font-size:22px;">a</tspan><tspan x="24.9" y="0" class="st34" style="font-size:22px;">v </tspan><tspan x="40.2" y="0" class="st34" style="font-size:22px;">I</tspan><tspan x="45.8" y="0" class="st34" style="font-size:22px;">t</tspan><tspan x="52.9" y="0" class="st34" style="font-size:22px;">em</tspan></text>
<text transform="matrix(1 0 0 1 -938.0566 1595.355)"><tspan x="0" y="0" class="st34" style="font-size:22px;">N</tspan><tspan x="14.5" y="0" class="st34" style="font-size:22px;">a</tspan><tspan x="24.9" y="0" class="st34" style="font-size:22px;">v </tspan><tspan x="40.2" y="0" class="st34" style="font-size:22px;">I</tspan><tspan x="45.8" y="0" class="st34" style="font-size:22px;">t</tspan><tspan x="52.9" y="0" class="st34" style="font-size:22px;">em</tspan></text>
<text transform="matrix(1 0 0 1 -938.0566 1629.0806)"><tspan x="0" y="0" class="st34" style="font-size:22px;">N</tspan><tspan x="14.5" y="0" class="st34" style="font-size:22px;">a</tspan><tspan x="24.9" y="0" class="st34" style="font-size:22px;">v </tspan><tspan x="40.2" y="0" class="st34" style="font-size:22px;">I</tspan><tspan x="45.8" y="0" class="st34" style="font-size:22px;">t</tspan><tspan x="52.9" y="0" class="st34" style="font-size:22px;">em</tspan></text>
<text transform="matrix(1 0 0 1 -938.0566 1662.8071)"><tspan x="0" y="0" class="st34" style="font-size:22px;">N</tspan><tspan x="14.5" y="0" class="st34" style="font-size:22px;">a</tspan><tspan x="24.9" y="0" class="st34" style="font-size:22px;">v </tspan><tspan x="40.2" y="0" class="st34" style="font-size:22px;">I</tspan><tspan x="45.8" y="0" class="st34" style="font-size:22px;">t</tspan><tspan x="52.9" y="0" class="st34" style="font-size:22px;">em</tspan></text>
<text transform="matrix(1 0 0 1 -835.0308 1561.6509)"><tspan x="0" y="0" class="st34" style="font-size:22px;">N</tspan><tspan x="14.5" y="0" class="st34" style="font-size:22px;">a</tspan><tspan x="24.9" y="0" class="st34" style="font-size:22px;">v </tspan><tspan x="40.2" y="0" class="st34" style="font-size:22px;">I</tspan><tspan x="45.8" y="0" class="st34" style="font-size:22px;">t</tspan><tspan x="52.9" y="0" class="st34" style="font-size:22px;">em</tspan></text>
<text transform="matrix(1 0 0 1 -650.5405 1576.6929)" class="st34" style="font-size:18px;">email</text>
<text transform="matrix(1 0 0 1 -835.021 1595.3511)"><tspan x="0" y="0" class="st34" style="font-size:22px;">N</tspan><tspan x="14.5" y="0" class="st34" style="font-size:22px;">a</tspan><tspan x="24.9" y="0" class="st34" style="font-size:22px;">v </tspan><tspan x="40.1" y="0" class="st34" style="font-size:22px;">I</tspan><tspan x="45.7" y="0" class="st34" style="font-size:22px;">t</tspan><tspan x="52.9" y="0" class="st34" style="font-size:22px;">em</tspan></text>
<text transform="matrix(1 0 0 1 -835.021 1629.0767)"><tspan x="0" y="0" class="st34" style="font-size:22px;">N</tspan><tspan x="14.5" y="0" class="st34" style="font-size:22px;">a</tspan><tspan x="24.9" y="0" class="st34" style="font-size:22px;">v </tspan><tspan x="40.1" y="0" class="st34" style="font-size:22px;">I</tspan><tspan x="45.7" y="0" class="st34" style="font-size:22px;">t</tspan><tspan x="52.9" y="0" class="st34" style="font-size:22px;">em</tspan></text>
<rect x="-658.5" y="1555.8" class="st1" width="240.4" height="31"/>
<g>
	<defs>
		<rect id="SVGID_3_" x="32.6" y="19.8" width="465.9" height="974.6"/>
	</defs>
	<clipPath id="SVGID_4_">
		<use xlink:href="#SVGID_3_"  style="overflow:visible;"/>
	</clipPath>
	<g class="st3">
		<defs>
			<rect id="SVGID_5_" x="432.4" y="949.9" width="14.6" height="17.1"/>
		</defs>
		<clipPath id="SVGID_6_">
			<use xlink:href="#SVGID_5_"  style="overflow:visible;"/>
		</clipPath>
		<g class="st4">
			<defs>
				<rect id="SVGID_7_" x="432.4" y="949.9" width="14.6" height="17.1"/>
			</defs>
			<clipPath id="SVGID_8_">
				<use xlink:href="#SVGID_7_"  style="overflow:visible;"/>
			</clipPath>
			<path class="st5" d="M432.4,949.9h14.6V967h-14.6V949.9z M442.2,958.5c0.1-0.8,0.1-1.5,0.2-2.3h-1.9c0-0.5,0-1,0-1.4
				c0-0.4,0.2-0.7,0.6-0.7c0.4,0,0.7,0,1.1,0c0,0,0.1,0,0.1,0v-2.4h-0.2c-0.5,0-1.1,0-1.6,0c-0.2,0-0.4,0-0.6,0.1
				c-1.2,0.2-1.8,1.1-1.8,2.5c0,0.6,0,1.2,0,1.8c0,0.1,0,0.1,0,0.2h-1.2v2.3h1.2v6.8h2.4v-6.8H442.2z"/>
			<path class="st6" d="M442.2,958.5h-1.6v6.8h-2.4v-6.8h-1.2v-2.3h1.2c0-0.1,0-0.1,0-0.2c0-0.6,0-1.2,0-1.8c0-1.4,0.7-2.3,1.8-2.5
				c0.2,0,0.4,0,0.6-0.1c0.5,0,1.1,0,1.6,0h0.2v2.4c0,0-0.1,0-0.1,0c-0.4,0-0.7,0-1.1,0c-0.4,0-0.6,0.3-0.6,0.7c0,0.5,0,0.9,0,1.4
				h1.9C442.3,956.9,442.2,957.7,442.2,958.5"/>
		</g>
	</g>
	<g class="st3">
		<defs>
			<rect id="SVGID_9_" x="406.8" y="950" width="14.6" height="17"/>
		</defs>
		<clipPath id="SVGID_10_">
			<use xlink:href="#SVGID_9_"  style="overflow:visible;"/>
		</clipPath>
		<g class="st7">
			<defs>
				<rect id="SVGID_11_" x="406.8" y="950" width="14.6" height="17"/>
			</defs>
			<clipPath id="SVGID_12_">
				<use xlink:href="#SVGID_11_"  style="overflow:visible;"/>
			</clipPath>
			<path class="st8" d="M406.8,961.9v-6.8c0-0.2,0.1-0.4,0.1-0.6c0.1-2.2,1.3-3.9,3.1-4.3c0.4-0.1,0.8-0.1,1.2-0.2h5.8
				c0.2,0,0.3,0.1,0.5,0.1c1.9,0.1,3.2,1.5,3.7,3.6c0.1,0.5,0.1,1,0.2,1.5v6.6c0,0.3-0.1,0.5-0.1,0.8c-0.1,2.2-1.2,3.8-3.1,4.3
				c-0.5,0.1-0.9,0.2-1.4,0.2h-5.6c-0.2,0-0.4-0.1-0.6-0.1c-1.9-0.1-3.3-1.5-3.7-3.7C406.9,962.8,406.9,962.3,406.8,961.9
				 M414,965.4C414,965.4,414,965.4,414,965.4c1.1,0,2.2,0,3.2,0c0.8,0,1.5-0.3,2.1-1.1c0.4-0.6,0.6-1.3,0.6-2.1c0-2.4,0-4.9,0-7.3
				c0-2-1-3.2-2.8-3.3c-1.8-0.1-3.6-0.1-5.3-0.1c-0.5,0-1.1,0-1.6,0.2c-1.2,0.3-2,1.4-2,3c0,2.5,0,5,0,7.4c0,2,1.1,3.1,2.8,3.2
				C412,965.4,413,965.4,414,965.4"/>
			<path class="st9" d="M416.9,967c0.5-0.1,0.9-0.1,1.4-0.2c1.8-0.5,2.9-2.1,3.1-4.3c0-0.3,0-0.5,0.1-0.8v5.3H416.9z"/>
			<path class="st9" d="M421.4,955.2c-0.1-0.5-0.1-1-0.2-1.5c-0.4-2.1-1.8-3.5-3.7-3.6c-0.2,0-0.3-0.1-0.5-0.1h4.4V955.2z"/>
			<path class="st9" d="M406.8,961.9c0.1,0.4,0.1,0.9,0.2,1.3c0.4,2.1,1.8,3.6,3.7,3.7c0.2,0,0.4,0.1,0.6,0.1h-4.4V961.9z"/>
			<path class="st9" d="M411.2,950c-0.4,0.1-0.8,0.1-1.2,0.2c-1.8,0.5-3,2.1-3.1,4.3c0,0.2,0,0.4-0.1,0.6V950H411.2z"/>
			<path class="st9" d="M414,965.4c-1,0-2.1,0-3.1,0c-1.7-0.1-2.7-1.2-2.8-3.2c0-2.5,0-5,0-7.4c0-1.6,0.8-2.7,2-3
				c0.5-0.1,1.1-0.2,1.6-0.2c1.8,0,3.6,0,5.3,0.1c1.7,0.1,2.7,1.2,2.8,3.3c0,2.4,0,4.9,0,7.3c0,0.8-0.2,1.5-0.6,2.1
				c-0.5,0.7-1.3,1-2.1,1.1C416.2,965.4,415.1,965.4,414,965.4C414,965.4,414,965.4,414,965.4 M410.4,958.5c0,2.4,1.6,4.4,3.7,4.4
				c2.1,0,3.7-1.9,3.7-4.3c0-2.4-1.6-4.4-3.7-4.4C412,954.1,410.4,956,410.4,958.5 M418.8,953.9c0-0.6-0.4-1-0.9-1
				c-0.5,0-0.9,0.5-0.9,1c0,0.6,0.4,1,0.9,1C418.5,955,418.8,954.5,418.8,953.9"/>
			<path class="st8" d="M410.4,958.5c0-2.4,1.7-4.4,3.8-4.3c2.1,0,3.7,2,3.7,4.4c0,2.4-1.7,4.3-3.7,4.3
				C412,962.9,410.3,960.9,410.4,958.5 M414.1,961.3c1.4,0,2.4-1.2,2.4-2.8c0-1.6-1.1-2.8-2.4-2.8c-1.4,0-2.4,1.2-2.4,2.8
				C411.7,960.1,412.7,961.3,414.1,961.3"/>
			<path class="st8" d="M418.8,953.9c0,0.6-0.4,1-0.9,1c-0.5,0-0.9-0.5-0.9-1c0-0.6,0.4-1,0.9-1
				C418.5,952.9,418.8,953.4,418.8,953.9"/>
			<path class="st9" d="M414.1,961.3c-1.3,0-2.4-1.3-2.4-2.8c0-1.6,1.1-2.8,2.4-2.8c1.3,0,2.4,1.3,2.4,2.8
				C416.5,960.1,415.4,961.3,414.1,961.3"/>
		</g>
	</g>
	<g class="st3">
		<defs>
			<rect id="SVGID_13_" x="381.2" y="949.9" width="14.6" height="17.1"/>
		</defs>
		<clipPath id="SVGID_14_">
			<use xlink:href="#SVGID_13_"  style="overflow:visible;"/>
		</clipPath>
		<g class="st10">
			<defs>
				<rect id="SVGID_15_" x="381.2" y="949.9" width="14.6" height="17.1"/>
			</defs>
			<clipPath id="SVGID_16_">
				<use xlink:href="#SVGID_15_"  style="overflow:visible;"/>
			</clipPath>
			<path class="st11" d="M381.2,949.9h14.6V967h-14.6V949.9z M386.3,964.3c0-0.1,0-0.1,0-0.2c0-0.4,0-0.8,0.1-1.2
				c0.2-1.2,0.5-2.3,0.7-3.4c0-0.1,0-0.1,0-0.2c-0.1-0.4-0.2-0.8-0.1-1.2c0-0.5,0.2-0.9,0.5-1.2c0.2-0.2,0.5-0.3,0.8-0.2
				c0.3,0.1,0.4,0.4,0.4,0.7c0,0.3,0,0.6-0.1,0.8c-0.1,0.5-0.3,1.1-0.4,1.6c-0.1,0.5,0.2,1,0.6,1.2c0.2,0.1,0.5,0,0.7-0.1
				c0.3-0.1,0.6-0.4,0.7-0.8c0.5-0.9,0.6-1.8,0.5-2.8c-0.1-1.1-0.6-1.8-1.5-2.1c-0.4-0.1-0.7-0.1-1.1-0.1c-1.2,0.1-2.1,1.1-2.3,2.4
				c-0.1,0.6-0.1,1.2,0.2,1.7c0.2,0.3,0.2,0.6,0.1,0.9c0,0,0,0.1,0,0.1c-0.1,0.2-0.1,0.3-0.3,0.2c-0.4-0.2-0.6-0.5-0.8-0.9
				c-0.4-1.2-0.4-2.3,0.2-3.4c1.2-2.2,3.7-2.4,5.1-1.6c0.9,0.6,1.6,1.4,1.8,2.7c0.1,1,0,2-0.4,2.9c-0.3,0.7-0.6,1.2-1.1,1.6
				c-0.6,0.4-1.3,0.6-1.9,0.4c-0.3-0.1-0.6-0.3-0.8-0.7c-0.3,1.1-0.4,2.2-0.9,3.1c2.3,0.9,5.4-0.3,6.6-3.6c1.2-3.3-0.2-7.1-3-8.4
				c-2.8-1.3-6.1,0.4-7.1,3.7C382.2,959.7,383.9,963.1,386.3,964.3"/>
			<path class="st12" d="M386.3,964.3c-2.4-1.2-4-4.6-2.9-8.1c1-3.3,4.3-5,7.1-3.7c2.8,1.3,4.2,5.1,3,8.4c-1.2,3.3-4.3,4.5-6.6,3.6
				c0.6-0.9,0.7-2,0.9-3.1c0.2,0.3,0.5,0.6,0.8,0.7c0.7,0.2,1.3,0.1,1.9-0.4c0.5-0.4,0.9-0.9,1.1-1.6c0.4-0.9,0.5-1.9,0.4-2.9
				c-0.2-1.2-0.8-2.1-1.8-2.7c-1.4-0.8-3.9-0.6-5.1,1.6c-0.6,1.1-0.7,2.3-0.2,3.4c0.2,0.4,0.4,0.7,0.8,0.9c0.2,0.1,0.3,0.1,0.3-0.2
				c0,0,0-0.1,0-0.1c0.1-0.3,0.1-0.6-0.1-0.9c-0.3-0.5-0.3-1.1-0.2-1.7c0.2-1.3,1.2-2.3,2.3-2.4c0.4,0,0.7,0,1.1,0.1
				c0.9,0.3,1.4,1,1.5,2.1c0.1,1-0.1,1.9-0.5,2.8c-0.2,0.3-0.4,0.6-0.7,0.8c-0.2,0.1-0.5,0.1-0.7,0.1c-0.4-0.1-0.7-0.6-0.6-1.2
				c0.1-0.5,0.3-1.1,0.4-1.6c0.1-0.3,0.1-0.6,0.1-0.8c0-0.3-0.1-0.6-0.4-0.7c-0.3-0.1-0.6-0.1-0.8,0.2c-0.3,0.3-0.5,0.7-0.5,1.2
				c0,0.4,0,0.8,0.1,1.2c0,0,0,0.1,0,0.2c-0.2,1.1-0.5,2.3-0.7,3.4c-0.1,0.4-0.1,0.8-0.1,1.2C386.3,964.1,386.3,964.2,386.3,964.3"
				/>
		</g>
	</g>
	<g class="st3">
		<defs>
			<rect id="SVGID_17_" x="355.8" y="949.9" width="14.1" height="17.1"/>
		</defs>
		<clipPath id="SVGID_18_">
			<use xlink:href="#SVGID_17_"  style="overflow:visible;"/>
		</clipPath>
		<g class="st13">
			<defs>
				<rect id="SVGID_19_" x="355.8" y="949.9" width="14.1" height="17.1"/>
			</defs>
			<clipPath id="SVGID_20_">
				<use xlink:href="#SVGID_19_"  style="overflow:visible;"/>
			</clipPath>
			<path class="st14" d="M355.8,949.9h14.1V967h-14.1V949.9z M355.9,963.8C355.9,963.9,355.9,963.9,355.9,963.8
				c0,0.1,0.1,0.1,0.1,0.1c0.2,0.2,0.5,0.3,0.7,0.5c0.5,0.2,0.9,0.4,1.4,0.6c0.8,0.3,1.6,0.3,2.5,0.3c1.2,0,2.4-0.3,3.5-1
				c0.4-0.3,0.9-0.6,1.3-1c0.5-0.5,1-1.1,1.4-1.7c0.5-0.8,0.9-1.6,1.2-2.5c0.3-0.8,0.4-1.6,0.5-2.4c0-0.5,0.1-1,0.1-1.5
				c0-0.1,0-0.2,0.1-0.2c0.2-0.3,0.5-0.5,0.7-0.8c0.2-0.2,0.3-0.4,0.5-0.6c0.1-0.1,0.1-0.2,0.1-0.3c0,0,0,0,0,0
				c-0.5,0.2-0.9,0.4-1.5,0.5c0.5-0.5,1-1.1,1.2-1.9c-0.1,0.1-0.2,0.1-0.3,0.2c-0.4,0.2-0.7,0.4-1.1,0.5c-0.3,0.1-0.5,0.1-0.7-0.2
				c0,0,0,0,0,0c-0.4-0.4-0.9-0.7-1.5-0.7c-0.9-0.1-1.6,0.2-2.3,0.9c-0.4,0.5-0.7,1-0.8,1.6c-0.1,0.5-0.1,1-0.1,1.6
				c0,0.1,0,0.1,0,0.2c-0.1,0-0.1,0-0.1,0c-0.8-0.1-1.6-0.3-2.3-0.6c-0.5-0.2-1-0.5-1.4-0.8c-0.6-0.5-1.1-1-1.6-1.6
				c-0.2-0.2-0.3-0.3-0.5-0.5c-0.6,1.8-0.4,3.3,0.9,4.6c-0.4,0-0.8-0.2-1.2-0.4c0,0.8,0.2,1.4,0.5,2c0.4,0.7,1,1.2,1.7,1.4
				c-0.4,0.1-0.8,0.1-1.2,0.1c0,0,0,0.1,0,0.1c0.2,0.6,0.4,1,0.8,1.4c0.5,0.5,1,0.7,1.6,0.8c0.1,0,0.1,0,0.2,0.1
				c-0.5,0.4-1,0.7-1.5,1C357.7,963.8,356.8,963.9,355.9,963.8"/>
			<path class="st15" d="M355.9,963.8c0.9,0.1,1.8,0,2.7-0.4c0.5-0.3,1-0.6,1.5-1c-0.1,0-0.1-0.1-0.2-0.1c-0.6-0.1-1.2-0.3-1.6-0.8
				c-0.4-0.4-0.7-0.9-0.8-1.4c0,0,0-0.1,0-0.1c0.4,0,0.8,0.1,1.2-0.1c-0.7-0.2-1.3-0.7-1.7-1.4c-0.3-0.6-0.5-1.2-0.5-2
				c0.4,0.2,0.8,0.4,1.2,0.4c-1.3-1.3-1.5-2.9-0.9-4.6c0.2,0.2,0.3,0.3,0.5,0.5c0.5,0.6,1,1.1,1.6,1.6c0.5,0.3,0.9,0.6,1.4,0.8
				c0.7,0.4,1.5,0.6,2.3,0.6c0,0,0.1,0,0.1,0c0-0.1,0-0.1,0-0.2c0-0.5-0.1-1.1,0.1-1.6c0.1-0.6,0.4-1.2,0.8-1.6
				c0.6-0.7,1.4-1,2.3-0.9c0.6,0.1,1.1,0.3,1.5,0.7c0,0,0,0,0,0c0.2,0.3,0.4,0.3,0.7,0.2c0.4-0.2,0.7-0.4,1.1-0.5
				c0.1,0,0.2-0.1,0.3-0.2c-0.2,0.8-0.6,1.3-1.2,1.9c0.5,0,1-0.3,1.5-0.5c0,0,0,0,0,0c0,0.1-0.1,0.2-0.1,0.3
				c-0.2,0.2-0.3,0.4-0.5,0.6c-0.2,0.3-0.5,0.5-0.7,0.8c0,0-0.1,0.1-0.1,0.2c0,0.5,0,1-0.1,1.5c-0.1,0.8-0.3,1.7-0.5,2.4
				c-0.3,0.9-0.7,1.7-1.2,2.5c-0.4,0.6-0.9,1.2-1.4,1.7c-0.4,0.4-0.8,0.7-1.3,1c-1.1,0.7-2.3,1-3.5,1c-0.8,0-1.7,0-2.5-0.3
				c-0.5-0.2-0.9-0.4-1.4-0.6c-0.2-0.1-0.5-0.3-0.7-0.5C356,963.9,355.9,963.9,355.9,963.8C355.9,963.9,355.9,963.9,355.9,963.8"/>
		</g>
	</g>
	<g class="st3">
		<defs>
			<rect id="SVGID_21_" x="458" y="950" width="14.7" height="17.1"/>
		</defs>
		<clipPath id="SVGID_22_">
			<use xlink:href="#SVGID_21_"  style="overflow:visible;"/>
		</clipPath>
		<g class="st16">
			<defs>
				<rect id="SVGID_23_" x="458" y="950" width="14.7" height="17.1"/>
			</defs>
			<clipPath id="SVGID_24_">
				<use xlink:href="#SVGID_23_"  style="overflow:visible;"/>
			</clipPath>
			<path class="st17" d="M458,953.9V950h14.7v17.1H458v-3.8c0.1,0.1,0.2,0.3,0.3,0.4c1.5-2,3-4,4.5-6c-1.5-1.6-3-3.1-4.5-4.6
				C458.2,953.5,458.1,953.7,458,953.9 M458.8,964.7c0.5,0.1,0.8,0.2,1.2,0.2c3.5,0,7,0,10.6,0c0.4,0,0.7-0.1,1.2-0.3
				c-1.6-2.1-3.1-4.1-4.7-6.1c-0.5,0.5-0.9,0.9-1.3,1.4c-0.3,0.3-0.6,0.3-0.8,0c-0.4-0.5-0.9-0.9-1.3-1.4
				C462,960.5,460.5,962.5,458.8,964.7 M465.3,958.9c2.1-2.2,4.2-4.3,6.4-6.5c-0.4-0.1-0.7-0.2-1.1-0.2c-3.5,0-7.1,0-10.6,0
				c-0.3,0-0.6,0.1-1.1,0.2C461.1,954.6,463.2,956.7,465.3,958.9 M472.3,963.7c0.1,0,0.1,0,0.2-0.1c0-0.4,0.1-0.7,0.1-1.1
				c0-2.7,0-5.4,0-8.1c0-0.4-0.1-0.8-0.2-1.4c-1.6,1.6-3.1,3.2-4.6,4.7C469.3,959.8,470.8,961.8,472.3,963.7"/>
			<path class="st18" d="M458,953.9c0.1-0.2,0.2-0.4,0.3-0.7c1.5,1.5,3,3.1,4.5,4.6c-1.5,2-3,4-4.5,6c-0.1-0.2-0.2-0.3-0.3-0.4
				V953.9z"/>
			<path class="st18" d="M458.8,964.7c1.6-2.2,3.2-4.1,4.7-6.2c0.5,0.5,0.9,0.9,1.3,1.4c0.3,0.3,0.6,0.3,0.8,0
				c0.4-0.5,0.9-0.9,1.3-1.4c1.6,2,3.1,4,4.7,6.1c-0.5,0.1-0.8,0.2-1.2,0.3c-3.5,0-7,0-10.6,0C459.7,964.9,459.3,964.8,458.8,964.7"
				/>
			<path class="st18" d="M465.3,958.9c-2.1-2.2-4.2-4.3-6.4-6.5c0.5-0.1,0.8-0.2,1.1-0.2c3.5,0,7.1,0,10.6,0c0.3,0,0.6,0.1,1.1,0.2
				C469.5,954.6,467.4,956.7,465.3,958.9"/>
			<path class="st18" d="M472.3,963.7c-1.5-2-3-3.9-4.5-5.9c1.5-1.6,3-3.1,4.6-4.7c0.1,0.6,0.2,1,0.2,1.4c0,2.7,0,5.4,0,8.1
				c0,0.4-0.1,0.7-0.1,1.1C472.4,963.7,472.3,963.7,472.3,963.7"/>
		</g>
	</g>
	<g class="st3">
		<defs>
			<rect id="SVGID_25_" x="476.4" y="34.6" width="14.6" height="17.1"/>
		</defs>
		<clipPath id="SVGID_26_">
			<use xlink:href="#SVGID_25_"  style="overflow:visible;"/>
		</clipPath>
		<g class="st19">
			<defs>
				<rect id="SVGID_27_" x="476.4" y="34.6" width="14.6" height="17.1"/>
			</defs>
			<clipPath id="SVGID_28_">
				<use xlink:href="#SVGID_27_"  style="overflow:visible;"/>
			</clipPath>
			<path class="st20" d="M476.4,34.6H491v17.1h-14.6V34.6z M486.2,43.2c0.1-0.8,0.1-1.5,0.2-2.3h-1.9c0-0.5,0-1,0-1.4
				c0-0.4,0.2-0.7,0.6-0.7c0.4,0,0.7,0,1.1,0c0,0,0.1,0,0.1,0v-2.4h-0.2c-0.5,0-1.1,0-1.6,0c-0.2,0-0.4,0-0.6,0.1
				c-1.2,0.2-1.8,1.1-1.8,2.5c0,0.6,0,1.2,0,1.8c0,0.1,0,0.1,0,0.2H481v2.3h1.2V50h2.4v-6.8H486.2z"/>
			<path class="st21" d="M486.2,43.2h-1.6V50h-2.4v-6.8H481v-2.3h1.2c0-0.1,0-0.1,0-0.2c0-0.6,0-1.2,0-1.8c0-1.4,0.7-2.3,1.8-2.5
				c0.2,0,0.4,0,0.6-0.1c0.5,0,1.1,0,1.6,0h0.2v2.4c0,0-0.1,0-0.1,0c-0.4,0-0.7,0-1.1,0c-0.4,0-0.6,0.3-0.6,0.7c0,0.5,0,0.9,0,1.4
				h1.9C486.4,41.6,486.3,42.4,486.2,43.2"/>
		</g>
	</g>
	<g class="st3">
		<defs>
			<rect id="SVGID_29_" x="453.2" y="34.7" width="14.6" height="17"/>
		</defs>
		<clipPath id="SVGID_30_">
			<use xlink:href="#SVGID_29_"  style="overflow:visible;"/>
		</clipPath>
		<g class="st22">
			<defs>
				<rect id="SVGID_31_" x="453.2" y="34.7" width="14.6" height="17"/>
			</defs>
			<clipPath id="SVGID_32_">
				<use xlink:href="#SVGID_31_"  style="overflow:visible;"/>
			</clipPath>
			<path class="st23" d="M453.2,46.6v-6.8c0-0.2,0.1-0.4,0.1-0.6c0.1-2.2,1.3-3.9,3.1-4.3c0.4-0.1,0.8-0.1,1.2-0.2h5.8
				c0.2,0,0.3,0.1,0.5,0.1c1.9,0.1,3.2,1.5,3.7,3.6c0.1,0.5,0.1,1,0.2,1.5v6.6c0,0.3-0.1,0.5-0.1,0.8c-0.1,2.2-1.2,3.8-3.1,4.3
				c-0.5,0.1-0.9,0.2-1.4,0.2h-5.6c-0.2,0-0.4-0.1-0.6-0.1c-1.9-0.1-3.3-1.5-3.7-3.7C453.3,47.5,453.2,47,453.2,46.6 M460.4,50.1
				C460.4,50.1,460.4,50.1,460.4,50.1c1.1,0,2.2,0,3.2,0c0.8,0,1.5-0.3,2.1-1.1c0.4-0.6,0.6-1.3,0.6-2.1c0-2.4,0-4.9,0-7.3
				c0-2-1-3.2-2.8-3.3c-1.8-0.1-3.6-0.1-5.3-0.1c-0.5,0-1.1,0-1.6,0.2c-1.2,0.3-2,1.4-2,3c0,2.5,0,5,0,7.4c0,2,1.1,3.1,2.8,3.2
				C458.3,50.1,459.4,50.1,460.4,50.1"/>
			<path class="st24" d="M463.2,51.7c0.5-0.1,0.9-0.1,1.4-0.2c1.8-0.5,2.9-2.1,3.1-4.3c0-0.3,0-0.5,0.1-0.8v5.3H463.2z"/>
			<path class="st24" d="M467.7,39.9c-0.1-0.5-0.1-1-0.2-1.5c-0.4-2.1-1.8-3.5-3.7-3.6c-0.2,0-0.3-0.1-0.5-0.1h4.4V39.9z"/>
			<path class="st24" d="M453.2,46.6c0.1,0.4,0.1,0.9,0.2,1.3c0.4,2.1,1.8,3.6,3.7,3.7c0.2,0,0.4,0.1,0.6,0.1h-4.4V46.6z"/>
			<path class="st24" d="M457.5,34.7c-0.4,0.1-0.8,0.1-1.2,0.2c-1.8,0.5-3,2.1-3.1,4.3c0,0.2,0,0.4-0.1,0.6v-5.1H457.5z"/>
			<path class="st24" d="M460.4,50.1c-1,0-2.1,0-3.1,0c-1.7-0.1-2.7-1.2-2.8-3.2c0-2.5,0-5,0-7.4c0-1.6,0.8-2.7,2-3
				c0.5-0.1,1.1-0.2,1.6-0.2c1.8,0,3.6,0,5.3,0.1c1.7,0.1,2.7,1.2,2.8,3.3c0,2.4,0,4.9,0,7.3c0,0.8-0.2,1.5-0.6,2.1
				c-0.5,0.7-1.3,1-2.1,1.1C462.6,50.1,461.5,50.1,460.4,50.1C460.4,50.1,460.4,50.1,460.4,50.1 M456.7,43.2c0,2.4,1.6,4.4,3.7,4.4
				c2.1,0,3.7-1.9,3.7-4.3c0-2.4-1.6-4.4-3.7-4.4C458.4,38.8,456.7,40.7,456.7,43.2 M465.2,38.6c0-0.6-0.4-1-0.9-1
				c-0.5,0-0.9,0.5-0.9,1c0,0.6,0.4,1,0.9,1C464.8,39.7,465.2,39.2,465.2,38.6"/>
			<path class="st23" d="M456.7,43.2c0-2.4,1.7-4.4,3.8-4.3c2.1,0,3.7,2,3.7,4.4c0,2.4-1.7,4.3-3.7,4.3
				C458.3,47.5,456.7,45.6,456.7,43.2 M460.4,46c1.4,0,2.4-1.2,2.4-2.8c0-1.6-1.1-2.8-2.4-2.8c-1.4,0-2.4,1.2-2.4,2.8
				C458,44.8,459.1,46,460.4,46"/>
			<path class="st23" d="M465.2,38.6c0,0.6-0.4,1-0.9,1c-0.5,0-0.9-0.5-0.9-1c0-0.6,0.4-1,0.9-1C464.8,37.6,465.2,38.1,465.2,38.6"
				/>
			<path class="st24" d="M460.4,46c-1.3,0-2.4-1.3-2.4-2.8c0-1.6,1.1-2.8,2.4-2.8c1.3,0,2.4,1.3,2.4,2.8
				C462.9,44.8,461.8,46,460.4,46"/>
		</g>
	</g>
	<g class="st3">
		<defs>
			<rect id="SVGID_33_" x="429.8" y="34.6" width="14.6" height="17.1"/>
		</defs>
		<clipPath id="SVGID_34_">
			<use xlink:href="#SVGID_33_"  style="overflow:visible;"/>
		</clipPath>
		<g class="st25">
			<defs>
				<rect id="SVGID_35_" x="429.8" y="34.6" width="14.6" height="17.1"/>
			</defs>
			<clipPath id="SVGID_36_">
				<use xlink:href="#SVGID_35_"  style="overflow:visible;"/>
			</clipPath>
			<path class="st26" d="M429.8,34.6h14.6v17.1h-14.6V34.6z M434.9,49c0-0.1,0-0.1,0-0.2c0-0.4,0-0.8,0.1-1.2
				c0.2-1.2,0.5-2.3,0.7-3.4c0-0.1,0-0.1,0-0.2c-0.1-0.4-0.2-0.8-0.1-1.2c0-0.5,0.2-0.9,0.5-1.2c0.2-0.2,0.5-0.3,0.8-0.2
				c0.3,0.1,0.4,0.4,0.4,0.7c0,0.3,0,0.6-0.1,0.8c-0.1,0.5-0.3,1.1-0.4,1.6c-0.1,0.5,0.2,1,0.6,1.2c0.2,0.1,0.5,0,0.7-0.1
				c0.3-0.1,0.6-0.4,0.7-0.8c0.5-0.9,0.6-1.8,0.5-2.8c-0.1-1.1-0.6-1.8-1.5-2.1c-0.4-0.1-0.7-0.1-1.1-0.1c-1.2,0.1-2.1,1.1-2.3,2.4
				c-0.1,0.6-0.1,1.2,0.2,1.7c0.2,0.3,0.2,0.6,0.1,0.9c0,0,0,0.1,0,0.1c-0.1,0.2-0.1,0.3-0.3,0.2c-0.4-0.2-0.6-0.5-0.8-0.9
				c-0.4-1.2-0.4-2.3,0.2-3.4c1.2-2.2,3.7-2.4,5.1-1.6c0.9,0.6,1.6,1.4,1.8,2.7c0.1,1,0,2-0.4,2.9c-0.3,0.7-0.6,1.2-1.1,1.6
				c-0.6,0.4-1.3,0.6-1.9,0.4c-0.3-0.1-0.6-0.3-0.8-0.7c-0.3,1.1-0.4,2.2-0.9,3.1c2.3,0.9,5.4-0.3,6.6-3.6c1.2-3.3-0.2-7.1-3-8.4
				c-2.8-1.3-6.1,0.4-7.1,3.7C430.9,44.4,432.5,47.8,434.9,49"/>
			<path class="st27" d="M434.9,49c-2.4-1.2-4-4.6-2.9-8.1c1-3.3,4.3-5,7.1-3.7c2.8,1.3,4.2,5.1,3,8.4c-1.2,3.3-4.3,4.5-6.6,3.6
				c0.6-0.9,0.7-2,0.9-3.1c0.2,0.3,0.5,0.6,0.8,0.7c0.7,0.2,1.3,0.1,1.9-0.4c0.5-0.4,0.9-0.9,1.1-1.6c0.4-0.9,0.5-1.9,0.4-2.9
				c-0.2-1.2-0.8-2.1-1.8-2.7c-1.4-0.8-3.9-0.6-5.1,1.6c-0.6,1.1-0.7,2.3-0.2,3.4c0.2,0.4,0.4,0.7,0.8,0.9c0.2,0.1,0.3,0.1,0.3-0.2
				c0,0,0-0.1,0-0.1c0.1-0.3,0.1-0.6-0.1-0.9c-0.3-0.5-0.3-1.1-0.2-1.7c0.2-1.3,1.2-2.3,2.3-2.4c0.4,0,0.7,0,1.1,0.1
				c0.9,0.3,1.4,1,1.5,2.1c0.1,1-0.1,1.9-0.5,2.8c-0.2,0.3-0.4,0.6-0.7,0.8c-0.2,0.1-0.5,0.1-0.7,0.1c-0.4-0.1-0.7-0.6-0.6-1.2
				c0.1-0.5,0.3-1.1,0.4-1.6c0.1-0.3,0.1-0.6,0.1-0.8c0-0.3-0.1-0.6-0.4-0.7c-0.3-0.1-0.6-0.1-0.8,0.2c-0.3,0.3-0.5,0.7-0.5,1.2
				c0,0.4,0,0.8,0.1,1.2c0,0,0,0.1,0,0.2c-0.2,1.1-0.5,2.3-0.7,3.4c-0.1,0.4-0.1,0.8-0.1,1.2C434.9,48.8,434.9,48.9,434.9,49"/>
		</g>
	</g>
	<g class="st3">
		<defs>
			<rect id="SVGID_37_" x="408.7" y="34.6" width="14.1" height="17.1"/>
		</defs>
		<clipPath id="SVGID_38_">
			<use xlink:href="#SVGID_37_"  style="overflow:visible;"/>
		</clipPath>
		<g class="st28">
			<defs>
				<rect id="SVGID_39_" x="408.7" y="34.6" width="14.1" height="17.1"/>
			</defs>
			<clipPath id="SVGID_40_">
				<use xlink:href="#SVGID_39_"  style="overflow:visible;"/>
			</clipPath>
			<path class="st29" d="M408.7,34.6h14.1v17.1h-14.1V34.6z M408.8,48.5C408.8,48.6,408.8,48.6,408.8,48.5c0,0.1,0.1,0.1,0.1,0.1
				c0.2,0.2,0.5,0.3,0.7,0.5c0.5,0.2,0.9,0.4,1.4,0.6c0.8,0.3,1.6,0.3,2.5,0.3c1.2,0,2.4-0.3,3.5-1c0.4-0.3,0.9-0.6,1.3-1
				c0.5-0.5,1-1.1,1.4-1.7c0.5-0.8,0.9-1.6,1.2-2.5c0.3-0.8,0.4-1.6,0.5-2.4c0-0.5,0.1-1,0.1-1.5c0-0.1,0-0.2,0.1-0.2
				c0.2-0.3,0.5-0.5,0.7-0.8c0.2-0.2,0.3-0.4,0.5-0.6c0.1-0.1,0.1-0.2,0.1-0.3c0,0,0,0,0,0c-0.5,0.2-0.9,0.4-1.5,0.5
				c0.5-0.5,1-1.1,1.2-1.9c-0.1,0.1-0.2,0.1-0.3,0.2c-0.4,0.2-0.7,0.4-1.1,0.5c-0.3,0.1-0.5,0.1-0.7-0.2c0,0,0,0,0,0
				c-0.4-0.4-0.9-0.7-1.5-0.7c-0.9-0.1-1.6,0.2-2.3,0.9c-0.4,0.5-0.7,1-0.8,1.6c-0.1,0.5-0.1,1-0.1,1.6c0,0.1,0,0.1,0,0.2
				c-0.1,0-0.1,0-0.1,0c-0.8-0.1-1.6-0.3-2.3-0.6c-0.5-0.2-1-0.5-1.4-0.8c-0.6-0.5-1.1-1-1.6-1.6c-0.2-0.2-0.3-0.3-0.5-0.5
				c-0.6,1.8-0.4,3.3,0.9,4.6c-0.4,0-0.8-0.2-1.2-0.4c0,0.8,0.2,1.4,0.5,2c0.4,0.7,1,1.2,1.7,1.4c-0.4,0.1-0.8,0.1-1.2,0.1
				c0,0,0,0.1,0,0.1c0.2,0.6,0.4,1,0.8,1.4c0.5,0.5,1,0.7,1.6,0.8c0.1,0,0.1,0,0.2,0.1c-0.5,0.4-1,0.7-1.5,1
				C410.6,48.5,409.7,48.6,408.8,48.5"/>
			<path class="st30" d="M408.8,48.5c0.9,0.1,1.8,0,2.7-0.4c0.5-0.3,1-0.6,1.5-1c-0.1,0-0.1-0.1-0.2-0.1c-0.6-0.1-1.2-0.3-1.6-0.8
				c-0.4-0.4-0.7-0.9-0.8-1.4c0,0,0-0.1,0-0.1c0.4,0,0.8,0.1,1.2-0.1c-0.7-0.2-1.3-0.7-1.7-1.4c-0.3-0.6-0.5-1.2-0.5-2
				c0.4,0.2,0.8,0.4,1.2,0.4c-1.3-1.3-1.5-2.9-0.9-4.6c0.2,0.2,0.3,0.3,0.5,0.5c0.5,0.6,1,1.1,1.6,1.6c0.5,0.3,0.9,0.6,1.4,0.8
				c0.7,0.4,1.5,0.6,2.3,0.6c0,0,0.1,0,0.1,0c0-0.1,0-0.1,0-0.2c0-0.5-0.1-1.1,0.1-1.6c0.1-0.6,0.4-1.2,0.8-1.6
				c0.6-0.7,1.4-1,2.3-0.9c0.6,0.1,1.1,0.3,1.5,0.7c0,0,0,0,0,0c0.2,0.3,0.4,0.3,0.7,0.2c0.4-0.2,0.7-0.4,1.1-0.5
				c0.1,0,0.2-0.1,0.3-0.2c-0.2,0.8-0.6,1.3-1.2,1.9c0.5,0,1-0.3,1.5-0.5c0,0,0,0,0,0c0,0.1-0.1,0.2-0.1,0.3
				c-0.2,0.2-0.3,0.4-0.5,0.6c-0.2,0.3-0.5,0.5-0.7,0.8c0,0-0.1,0.1-0.1,0.2c0,0.5,0,1-0.1,1.5c-0.1,0.8-0.3,1.7-0.5,2.4
				c-0.3,0.9-0.7,1.7-1.2,2.5c-0.4,0.6-0.9,1.2-1.4,1.7c-0.4,0.4-0.8,0.7-1.3,1c-1.1,0.7-2.3,1-3.5,1c-0.8,0-1.7,0-2.5-0.3
				c-0.5-0.2-0.9-0.4-1.4-0.6c-0.2-0.1-0.5-0.3-0.7-0.5C408.9,48.6,408.8,48.6,408.8,48.5C408.8,48.6,408.8,48.6,408.8,48.5"/>
		</g>
	</g>
	<ellipse class="st31" cx="463.8" cy="175.2" rx="3.4" ry="4"/>
	<line class="st31" x1="466.3" y1="178.1" x2="469.3" y2="181.6"/>
</g>
<g>
	<rect x="152.8" y="34.6" class="st32" width="221.1" height="57.7"/>
	<line class="st1" x1="152.8" y1="92.4" x2="373.8" y2="34.6"/>
	<line class="st1" x1="373.8" y1="92.4" x2="152.8" y2="34.6"/>
	<rect x="231.1" y="55.7" class="st0" width="64.5" height="15.6"/>
	<rect x="250.9" y="59.4" class="st33" width="24.8" height="8.2"/>
	<text transform="matrix(1 0 0 1 250.8936 67.3477)" class="st34 st35">Logo</text>
</g>
<line class="st1" x1="47.3" y1="115.2" x2="479.3" y2="115.2"/>
<line class="st1" x1="47.3" y1="143.3" x2="479.3" y2="143.3"/>
<line class="st1" x1="47.3" y1="366.6" x2="479.3" y2="366.6"/>
<line class="st1" x1="46.3" y1="437.6" x2="478.3" y2="437.6"/>
<line class="st1" x1="46.3" y1="649.7" x2="478.3" y2="649.7"/>
<rect x="53.3" y="124.3" class="st33" width="42.5" height="9.9"/>
<text transform="matrix(1 0 0 1 53.2969 132.207)" class="st34 st35">Nav Item</text>
<rect x="112.3" y="124.3" class="st33" width="42.5" height="9.9"/>
<text transform="matrix(1 0 0 1 112.2744 132.207)" class="st34 st35">Nav Item</text>
<rect x="171.3" y="124.3" class="st33" width="42.5" height="9.9"/>
<text transform="matrix(1 0 0 1 171.251 132.207)" class="st34 st35">Nav Item</text>
<rect x="230.2" y="124.3" class="st33" width="42.5" height="9.9"/>
<text transform="matrix(1 0 0 1 230.2275 132.207)" class="st34 st35">Nav Item</text>
<rect x="289.2" y="124.3" class="st33" width="42.5" height="9.9"/>
<text transform="matrix(1 0 0 1 289.2041 132.207)" class="st34 st35">Nav Item</text>
<rect x="348.2" y="124.3" class="st33" width="42.5" height="9.9"/>
<text transform="matrix(1 0 0 1 348.1807 132.207)" class="st34 st35">Nav Item</text>
<rect x="407.2" y="124.3" class="st33" width="42.5" height="9.9"/>
<text transform="matrix(1 0 0 1 407.1582 132.207)" class="st34 st35">Nav Item</text>
<g>
	<rect x="47.3" y="190.9" class="st1" width="309.9" height="160.3"/>
	<line class="st1" x1="47.3" y1="190.9" x2="357.2" y2="351.2"/>
	<line class="st1" x1="47.3" y1="351.2" x2="357.2" y2="190.9"/>
</g>
<g>
	<rect x="168.6" y="263.2" class="st0" width="69.1" height="15.6"/>
	<rect x="151.9" y="266.6" class="st33" width="100.6" height="9"/>
	<text transform="matrix(1 0 0 1 151.9434 274.4629)" class="st34 st35">Feature Recipe Image</text>
</g>
<g>
	<line class="st1" x1="368.5" y1="190.9" x2="479.3" y2="190.9"/>
	<line class="st1" x1="368.5" y1="204.6" x2="479.3" y2="204.6"/>
	<line class="st1" x1="368.5" y1="218.3" x2="479.3" y2="218.3"/>
	<line class="st1" x1="368" y1="232.1" x2="478.8" y2="232.1"/>
	<line class="st1" x1="368.5" y1="246.4" x2="479.3" y2="246.4"/>
</g>
<line class="st1" x1="368.8" y1="263.7" x2="479.6" y2="263.7"/>
<line class="st1" x1="368.8" y1="277.4" x2="479.6" y2="277.4"/>
<line class="st1" x1="368.8" y1="291.1" x2="479.6" y2="291.1"/>
<line class="st1" x1="368.2" y1="304.9" x2="479" y2="304.9"/>
<text transform="matrix(1 0 0 1 47.2969 898.8652)" class="st34 st35">Meet Jerah</text>
<text transform="matrix(1 0 0 1 357.5176 898.8652)" class="st34 st35">Newsletter Sign-Up</text>
<text transform="matrix(1 0 0 1 357.5176 941.5693)" class="st34 st35">Say Hello</text>
<line class="st1" x1="20.5" y1="877.3" x2="506.8" y2="877.3"/>
<rect x="47.3" y="908.2" class="st1" width="51.8" height="51.8"/>
<line class="st1" x1="47.3" y1="908.2" x2="99.1" y2="960"/>
<line class="st1" x1="99.1" y1="908.2" x2="47.3" y2="960"/>
<g>
	<g>
		<line class="st1" x1="111.9" y1="908.2" x2="188.4" y2="908.2"/>
		<line class="st1" x1="111.9" y1="918.1" x2="188.4" y2="918.1"/>
		<line class="st1" x1="111.9" y1="928" x2="188.4" y2="928"/>
		<line class="st1" x1="111.5" y1="938" x2="188" y2="938"/>
	</g>
	<line class="st1" x1="112.1" y1="947.9" x2="188.6" y2="947.9"/>
	<line class="st1" x1="112.1" y1="957.8" x2="188.6" y2="957.8"/>
</g>
<rect x="215.9" y="902.5" class="st33" width="42.5" height="9.9"/>
<text transform="matrix(1 0 0 1 215.9355 910.3809)" class="st34 st35">Nav Item</text>
<rect x="215.9" y="919.5" class="st33" width="42.5" height="9.9"/>
<text transform="matrix(1 0 0 1 215.9355 927.4609)" class="st34 st35">Nav Item</text>
<rect x="215.9" y="936.6" class="st33" width="42.5" height="9.9"/>
<text transform="matrix(1 0 0 1 215.9355 944.543)" class="st34 st35">Nav Item</text>
<rect x="215.9" y="953.7" class="st33" width="42.5" height="9.9"/>
<text transform="matrix(1 0 0 1 215.9355 961.624)" class="st34 st35">Nav Item</text>
<rect x="268.1" y="902.5" class="st33" width="42.5" height="9.9"/>
<text transform="matrix(1 0 0 1 268.126 910.3809)" class="st34 st35">Nav Item</text>
<rect x="361.6" y="911.5" class="st33" width="25.8" height="8.5"/>
<text transform="matrix(1 0 0 1 361.5693 918.0107)" class="st34 st36">email</text>
<rect x="268.1" y="919.5" class="st33" width="42.5" height="9.9"/>
<text transform="matrix(1 0 0 1 268.126 927.4609)" class="st34 st35">Nav Item</text>
<rect x="268.1" y="936.6" class="st33" width="42.5" height="9.9"/>
<text transform="matrix(1 0 0 1 268.126 944.543)" class="st34 st35">Nav Item</text>
<rect x="357.5" y="907.4" class="st1" width="121.8" height="15.7"/>
<rect x="368.8" y="320.8" class="st1" width="110.2" height="30.4"/>
<text transform="matrix(1 0 0 1 401.5762 339.2847)" class="st34 st35">View Post</text>
<text transform="matrix(1 0 0 1 47.2969 171.3999)" class="st34 st37">Recipes</text>
<rect x="46.3" y="456.3" class="st32" width="86.1" height="16.7"/>
<rect x="51.9" y="460.1" class="st33" width="76" height="9"/>
<text transform="matrix(1 0 0 1 51.9258 468.0474)" class="st34 st35">Recipe Category</text>
<g>
	<rect x="392.5" y="381.9" class="st32" width="86.1" height="16.7"/>
	<rect x="277.3" y="381.9" class="st32" width="86.1" height="16.7"/>
	<rect x="162.1" y="381.9" class="st32" width="86.1" height="16.7"/>
	<rect x="46.9" y="381.9" class="st32" width="86.1" height="16.7"/>
	<rect x="51.9" y="385.8" class="st33" width="76" height="9"/>
	<text transform="matrix(1 0 0 1 51.9258 393.6992)" class="st34 st35">Recipe Category</text>
	<rect x="167.1" y="385.8" class="st33" width="76" height="9"/>
	<text transform="matrix(1 0 0 1 167.1338 393.6992)" class="st34 st35">Recipe Category</text>
	<rect x="282.3" y="385.8" class="st33" width="76" height="9"/>
	<text transform="matrix(1 0 0 1 282.3428 393.6992)" class="st34 st35">Recipe Category</text>
	<rect x="397.6" y="385.8" class="st33" width="76" height="9"/>
	<text transform="matrix(1 0 0 1 397.5518 393.6992)" class="st34 st35">Recipe Category</text>
	<rect x="100.9" y="405.5" class="st32" width="86.1" height="16.7"/>
	<rect x="219.3" y="405.5" class="st32" width="86.1" height="16.7"/>
	<rect x="337.7" y="405.5" class="st32" width="86.1" height="16.7"/>
	<rect x="105.9" y="409.4" class="st33" width="76" height="9"/>
	<text transform="matrix(1 0 0 1 105.9326 417.3052)" class="st34 st35">Recipe Category</text>
	<rect x="224.3" y="409.4" class="st33" width="76" height="9"/>
	<text transform="matrix(1 0 0 1 224.3174 417.3052)" class="st34 st35">Recipe Category</text>
	<rect x="342.7" y="409.4" class="st33" width="76" height="9"/>
	<text transform="matrix(1 0 0 1 342.7031 417.3052)" class="st34 st35">Recipe Category</text>
</g>
<g>
	<g>
		<rect x="45.2" y="484.6" class="st1" width="111.4" height="111.4"/>
		<line class="st1" x1="45.2" y1="484.6" x2="156.6" y2="596"/>
		<line class="st1" x1="156.6" y1="484.6" x2="45.2" y2="596"/>
	</g>
	<g>
		<line class="st1" x1="46.3" y1="611.5" x2="156.6" y2="611.5"/>
		<line class="st1" x1="46.3" y1="624.2" x2="156.6" y2="624.2"/>
	</g>
	<g>
		<rect x="67.8" y="532.5" class="st0" width="69.1" height="15.6"/>
		<rect x="68.5" y="535.8" class="st33" width="64.8" height="9"/>
		<text transform="matrix(1 0 0 1 68.499 543.73)" class="st34 st35">Recipe Image</text>
	</g>
</g>
<g>
	<g>
		<rect x="189.8" y="484.6" class="st1" width="111.4" height="111.4"/>
		<line class="st1" x1="189.8" y1="484.6" x2="301.2" y2="596"/>
		<line class="st1" x1="301.2" y1="484.6" x2="189.8" y2="596"/>
	</g>
	<g>
		<line class="st1" x1="191" y1="611.5" x2="301.2" y2="611.5"/>
		<line class="st1" x1="191" y1="624.2" x2="301.2" y2="624.2"/>
	</g>
	<g>
		<rect x="212.5" y="532.5" class="st0" width="69.1" height="15.6"/>
		<rect x="213.1" y="535.8" class="st33" width="64.8" height="9"/>
		<text transform="matrix(1 0 0 1 213.1377 543.73)" class="st34 st35">Recipe Image</text>
	</g>
</g>
<g>
	<g>
		<rect x="334.4" y="484.6" class="st1" width="111.4" height="111.4"/>
		<line class="st1" x1="334.4" y1="484.6" x2="445.9" y2="596"/>
		<line class="st1" x1="445.9" y1="484.6" x2="334.4" y2="596"/>
	</g>
	<g>
		<line class="st1" x1="335.6" y1="611.5" x2="445.9" y2="611.5"/>
		<line class="st1" x1="335.6" y1="624.2" x2="445.9" y2="624.2"/>
	</g>
	<g>
		<rect x="357.1" y="532.5" class="st0" width="69.1" height="15.6"/>
		<rect x="357.8" y="535.8" class="st33" width="64.8" height="9"/>
		<text transform="matrix(1 0 0 1 357.7754 543.73)" class="st34 st35">Recipe Image</text>
	</g>
</g>
<circle class="st1" cx="473.6" cy="540.3" r="9.8"/>
<polyline class="st1" points="471,535.1 476.2,540.3 471,545.5 "/>
<rect x="45.7" y="671.4" class="st32" width="86.1" height="16.7"/>
<rect x="51.3" y="675.2" class="st33" width="76" height="9"/>
<text transform="matrix(1 0 0 1 51.3477 683.1582)" class="st34 st35">Recipe Category</text>
<g>
	<g>
		<rect x="44.6" y="699.7" class="st1" width="111.4" height="111.4"/>
		<line class="st1" x1="44.6" y1="699.7" x2="156" y2="811.2"/>
		<line class="st1" x1="156" y1="699.7" x2="44.6" y2="811.2"/>
	</g>
	<g>
		<line class="st1" x1="45.7" y1="826.6" x2="156" y2="826.6"/>
		<line class="st1" x1="45.7" y1="839.3" x2="156" y2="839.3"/>
	</g>
	<g>
		<rect x="67.2" y="747.6" class="st0" width="69.1" height="15.6"/>
		<rect x="67.9" y="750.9" class="st33" width="64.8" height="9"/>
		<text transform="matrix(1 0 0 1 67.9219 758.8413)" class="st34 st35">Recipe Image</text>
	</g>
</g>
<g>
	<g>
		<rect x="189.2" y="699.7" class="st1" width="111.4" height="111.4"/>
		<line class="st1" x1="189.2" y1="699.7" x2="300.7" y2="811.2"/>
		<line class="st1" x1="300.7" y1="699.7" x2="189.2" y2="811.2"/>
	</g>
	<g>
		<line class="st1" x1="190.4" y1="826.6" x2="300.7" y2="826.6"/>
		<line class="st1" x1="190.4" y1="839.3" x2="300.7" y2="839.3"/>
	</g>
	<g>
		<rect x="211.9" y="747.6" class="st0" width="69.1" height="15.6"/>
		<rect x="212.6" y="750.9" class="st33" width="64.8" height="9"/>
		<text transform="matrix(1 0 0 1 212.5605 758.8413)" class="st34 st35">Recipe Image</text>
	</g>
</g>
<g>
	<g>
		<rect x="333.9" y="699.7" class="st1" width="111.4" height="111.4"/>
		<line class="st1" x1="333.9" y1="699.7" x2="445.3" y2="811.2"/>
		<line class="st1" x1="445.3" y1="699.7" x2="333.9" y2="811.2"/>
	</g>
	<g>
		<line class="st1" x1="335" y1="826.6" x2="445.3" y2="826.6"/>
		<line class="st1" x1="335" y1="839.3" x2="445.3" y2="839.3"/>
	</g>
	<g>
		<rect x="356.5" y="747.6" class="st0" width="69.1" height="15.6"/>
		<rect x="357.2" y="750.9" class="st33" width="64.8" height="9"/>
		<text transform="matrix(1 0 0 1 357.1982 758.8413)" class="st34 st35">Recipe Image</text>
	</g>
</g>
<circle class="st1" cx="473" cy="755.4" r="9.8"/>
<polyline class="st1" points="470.4,750.2 475.6,755.4 470.4,760.6 "/>
<g>
	<circle class="st1" cx="491" cy="915.8" r="7.5"/>
	<polyline class="st1" points="489,911.8 493,915.8 489,919.7 	"/>
</g>
<g>
	<circle class="st1" cx="469.7" cy="128.2" r="3.6"/>
	<line class="st1" x1="472.3" y1="130.8" x2="475.4" y2="133.9"/>
</g>
</svg>
