<?xml version="1.0" encoding="utf-8"?>
<!-- Generator: Adobe Illustrator 19.1.0, SVG Export Plug-In . SVG Version: 6.00 Build 0)  -->
<svg version="1.1" id="Layer_1" xmlns="http://www.w3.org/2000/svg" xmlns:xlink="http://www.w3.org/1999/xlink" x="0px" y="0px"
	 viewBox="0 0 814 461" style="enable-background:new 0 0 814 461;" xml:space="preserve">
<style type="text/css">
	.st0{fill:#FFFFFF;stroke:#000000;stroke-miterlimit:10;}
	.st1{stroke:#000000;stroke-miterlimit:10;}
	.st2{font-family:'Lato-Regular';}
	.st3{font-size:15px;}
	.st4{font-size:13px;}
	.st5{font-size:10px;}
	.st6{fill:#58595B;}
	.st7{font-size:17px;}
	.st8{font-size:25px;}
</style>
<rect x="20" y="29" class="st0" width="250" height="400"/>
<rect x="285" y="29" class="st0" width="250" height="400"/>
<rect x="550" y="28.5" class="st0" width="250" height="400"/>
<rect x="29" y="41" class="st0" width="229" height="57"/>
<rect x="295.5" y="41" class="st0" width="229" height="57"/>
<rect x="560.5" y="40.5" class="st0" width="229" height="57"/>
<rect x="30.5" y="139" class="st0" width="229" height="37"/>
<rect x="30.5" y="184" class="st0" width="229" height="37"/>
<rect x="30.5" y="228.5" class="st0" width="229" height="37"/>
<rect x="30.5" y="278" class="st0" width="229" height="37"/>
<rect x="30.5" y="327" class="st0" width="229" height="37"/>
<rect x="295.5" y="176" class="st0" width="229" height="37"/>
<rect x="295.5" y="245.5" class="st0" width="229" height="37"/>
<rect x="295.5" y="327" class="st0" width="229" height="37"/>
<rect x="560.5" y="326.5" class="st0" width="229" height="37"/>
<rect x="560.5" y="277.5" class="st0" width="229" height="37"/>
<circle class="st0" cx="615.8" cy="170.3" r="13.3"/>
<circle class="st0" cx="615.8" cy="215.3" r="13.3"/>
<circle class="st1" cx="615.8" cy="170.3" r="6"/>
<text transform="matrix(1 0 0 1 100 164.75)" class="st2 st3">GET STARTED</text>
<text transform="matrix(1 0 0 1 70 207.75)" class="st2 st3">REGISTER NEW CARD</text>
<text transform="matrix(1 0 0 1 70 254)" class="st2 st3">LOAD COMPASS CARD</text>
<text transform="matrix(1 0 0 1 133 299.5)" class="st2 st3">FAQ</text>
<text transform="matrix(1 0 0 1 108 351.25)" class="st2 st3">CONTACT</text>
<text transform="matrix(1 0 0 1 320 199.5)" class="st2 st4">UPGRADE TO MONTHLY PASS</text>
<text transform="matrix(1 0 0 1 361 269.5)" class="st2 st4">ADD LAST VALUE</text>
<text transform="matrix(1 0 0 1 383 351.25)" class="st2 st4">SUBMIT</text>
<text transform="matrix(1 0 0 1 341 126)" class="st2 st5">Autoload card balance: $26.25</text>
<text transform="matrix(1 0 0 1 301.3364 157.5)"><tspan x="0" y="0" class="st2 st5">you have spent: $80.00 this month on autoload </tspan><tspan x="30.7" y="12" class="st2 st5">1 zone monthly pass cost: $90.00</tspan></text>
<text transform="matrix(1 0 0 1 351.1211 238)" class="st2 st5">last value added: $30.00</text>
<text transform="matrix(1 0 0 1 370.8154 304)" class="st2 st5">Add new value:</text>
<rect x="295.5" y="305.8" class="st0" width="229" height="18.5"/>
<text transform="matrix(1 0 0 1 303.8105 320)" class="st6 st2 st5">Enter $xx.xx</text>
<text transform="matrix(1 0 0 1 647.2305 176.25)" class="st2 st7">ADULT</text>
<text transform="matrix(1 0 0 1 648.3794 220.5)" class="st2 st7">CONCESSION</text>
<text transform="matrix(1 0 0 1 608.2236 303.5)" class="st2 st3">USE EXISTING CARD</text>
<text transform="matrix(1 0 0 1 593.1782 350.75)" class="st2 st3">ADD NEW CREDIT CARD</text>
<text transform="matrix(1 0 0 1 84.0752 76.5)" class="st2 st8">COMPASS</text>
<text transform="matrix(1 0 0 1 350.5752 76.5)" class="st2 st8">COMPASS</text>
<text transform="matrix(1 0 0 1 619.5752 76)" class="st2 st8">COMPASS</text>
</svg>
